<?xml version="1.0" encoding="UTF-8" standalone="no"?>
<svg
   xmlns:dc="http://purl.org/dc/elements/1.1/"
   xmlns:cc="http://creativecommons.org/ns#"
   xmlns:rdf="http://www.w3.org/1999/02/22-rdf-syntax-ns#"
   xmlns:svg="http://www.w3.org/2000/svg"
   xmlns="http://www.w3.org/2000/svg"
   viewBox="0 0 6412.3066 1919.7333"
   height="1919.7333"
   width="6412.3066"
   xml:space="preserve"
   id="svg2"
   version="1.1"><metadata
     id="metadata8"><rdf:RDF><cc:Work
         rdf:about=""><dc:format>image/svg+xml</dc:format><dc:type
           rdf:resource="http://purl.org/dc/dcmitype/StillImage" /></cc:Work></rdf:RDF></metadata><defs
     id="defs6"><clipPath
       id="clipPath26"
       clipPathUnits="userSpaceOnUse"><path
         id="path24"
         d="m 1868.239,1439.801 c -35.698,-0.031 -82.189,-11.794 -120.548,-60.859 v 0 c -52.283,-66.872 -44.38,-73.559 -124.296,-126.061 v 0 c 0,0 111.033,-18.515 171.218,78.147 v 0 c 60.186,96.661 129.986,98.98 129.986,98.98 v 0 c 0,0 -23.494,9.758 -56.041,9.793 v 0 z" /></clipPath><linearGradient
       id="linearGradient36"
       spreadMethod="pad"
       gradientTransform="matrix(301.20374,0,0,-301.20374,1623.395,1345.6311)"
       gradientUnits="userSpaceOnUse"
       y2="0"
       x2="1"
       y1="0"
       x1="0"><stop
         id="stop32"
         offset="0"
         style="stop-opacity:1;stop-color:#f6eb5e" /><stop
         id="stop34"
         offset="1"
         style="stop-opacity:1;stop-color:#f8c721" /></linearGradient><clipPath
       id="clipPath46"
       clipPathUnits="userSpaceOnUse"><path
         id="path44"
         d="m 1748.298,1359.488 c -40.411,-55.725 -41.947,-60.793 -108.819,-102.131 v 0 c 0,0 92.406,0 140.432,77.815 v 0 c 51.012,82.651 107.604,93.013 107.604,93.013 v 0 c 0,0 -3.786,0.508 -10.304,0.508 v 0 c -23.717,0 -83.609,-6.733 -128.913,-69.205" /></clipPath><linearGradient
       id="linearGradient62"
       spreadMethod="pad"
       gradientTransform="matrix(254.02196,162.08633,162.08633,-254.02196,1652.7844,1274.6074)"
       gradientUnits="userSpaceOnUse"
       y2="0"
       x2="1"
       y1="0"
       x1="0"><stop
         id="stop52"
         offset="0"
         style="stop-opacity:1;stop-color:#f7ea4e" /><stop
         id="stop54"
         offset="0.242458"
         style="stop-opacity:1;stop-color:#f7ea46" /><stop
         id="stop56"
         offset="0.653736"
         style="stop-opacity:1;stop-color:#f7ea46" /><stop
         id="stop58"
         offset="0.940053"
         style="stop-opacity:1;stop-color:#f8c721" /><stop
         id="stop60"
         offset="1"
         style="stop-opacity:1;stop-color:#f8c721" /></linearGradient><clipPath
       id="clipPath72"
       clipPathUnits="userSpaceOnUse"><path
         id="path70"
         d="m 1820.593,1400.82 c 0.032,0.01 0.049,0.01 0.049,0.01 v 0 c 0,0 -0.016,0 -0.049,-0.01 m -68.648,-57.745 c -28.572,-41.34 -30.755,-40.774 -77.206,-75.992 v 0 c 0,0 61.44,15.867 96.053,74.168 v 0 c 33.028,55.633 48.819,59.385 49.801,59.569 v 0 c -1.409,-0.247 -33.082,-6.289 -68.648,-57.745" /></clipPath><linearGradient
       id="linearGradient92"
       spreadMethod="pad"
       gradientTransform="matrix(145.90378,0,0,-145.90378,1674.7385,1333.9557)"
       gradientUnits="userSpaceOnUse"
       y2="0"
       x2="1"
       y1="0"
       x1="0"><stop
         id="stop78"
         offset="0"
         style="stop-opacity:1;stop-color:#f4e83f" /><stop
         id="stop80"
         offset="0.126934"
         style="stop-opacity:1;stop-color:#f4e83f" /><stop
         id="stop82"
         offset="0.394686"
         style="stop-opacity:1;stop-color:#f7f19f" /><stop
         id="stop84"
         offset="0.395711"
         style="stop-opacity:1;stop-color:#f7f09a" /><stop
         id="stop86"
         offset="0.684135"
         style="stop-opacity:1;stop-color:#faf5bb" /><stop
         id="stop88"
         offset="0.945216"
         style="stop-opacity:1;stop-color:#f7ea46" /><stop
         id="stop90"
         offset="1"
         style="stop-opacity:1;stop-color:#f7ea46" /></linearGradient><linearGradient
       id="linearGradient116"
       spreadMethod="pad"
       gradientTransform="matrix(860.98108,169.56853,169.56853,-860.98108,1647.6389,1126.1357)"
       gradientUnits="userSpaceOnUse"
       y2="0"
       x2="1"
       y1="0"
       x1="0"><stop
         id="stop108"
         offset="0"
         style="stop-opacity:1;stop-color:#f6e93f" /><stop
         id="stop110"
         offset="0.394937"
         style="stop-opacity:1;stop-color:#f8ca18" /><stop
         id="stop112"
         offset="0.776377"
         style="stop-opacity:1;stop-color:#e74927" /><stop
         id="stop114"
         offset="1"
         style="stop-opacity:1;stop-color:#c02f2a" /></linearGradient><linearGradient
       id="linearGradient144"
       spreadMethod="pad"
       gradientTransform="matrix(810.06989,0,0,-810.06989,1654.8422,1195.7229)"
       gradientUnits="userSpaceOnUse"
       y2="0"
       x2="1"
       y1="0"
       x1="0"><stop
         id="stop132"
         offset="0"
         style="stop-opacity:1;stop-color:#f9ec60" /><stop
         id="stop134"
         offset="0.288405"
         style="stop-opacity:1;stop-color:#f4e83f" /><stop
         id="stop136"
         offset="0.695351"
         style="stop-opacity:1;stop-color:#f9b01d" /><stop
         id="stop138"
         offset="0.81368"
         style="stop-opacity:1;stop-color:#ef8a24" /><stop
         id="stop140"
         offset="0.97078"
         style="stop-opacity:1;stop-color:#d0282a" /><stop
         id="stop142"
         offset="1"
         style="stop-opacity:1;stop-color:#d0282a" /></linearGradient><linearGradient
       id="linearGradient168"
       spreadMethod="pad"
       gradientTransform="matrix(610.86871,118.94531,118.94531,-610.86871,1703.5983,1128.413)"
       gradientUnits="userSpaceOnUse"
       y2="0"
       x2="1"
       y1="0"
       x1="0"><stop
         id="stop160"
         offset="0"
         style="stop-opacity:1;stop-color:#f9ec60" /><stop
         id="stop162"
         offset="0.351388"
         style="stop-opacity:1;stop-color:#f9f4b5" /><stop
         id="stop164"
         offset="0.699335"
         style="stop-opacity:1;stop-color:#f9ec60" /><stop
         id="stop166"
         offset="1"
         style="stop-opacity:1;stop-color:#f08321" /></linearGradient><clipPath
       id="clipPath178"
       clipPathUnits="userSpaceOnUse"><path
         id="path176"
         d="M 0,1439.801 H 4809.233 V 0 H 0 Z" /></clipPath><linearGradient
       id="linearGradient320"
       spreadMethod="pad"
       gradientTransform="matrix(512.59393,208.08199,208.08199,-512.59393,1656.5482,1206.9635)"
       gradientUnits="userSpaceOnUse"
       y2="0"
       x2="1"
       y1="0"
       x1="0"><stop
         id="stop314"
         offset="0"
         style="stop-opacity:1;stop-color:#f4e83f" /><stop
         id="stop316"
         offset="0.175627"
         style="stop-opacity:1;stop-color:#f6e130" /><stop
         id="stop318"
         offset="1"
         style="stop-opacity:1;stop-color:#ef8a24" /></linearGradient><linearGradient
       id="linearGradient348"
       spreadMethod="pad"
       gradientTransform="matrix(501.54422,0,0,-501.54422,1656.5006,1303.793)"
       gradientUnits="userSpaceOnUse"
       y2="0"
       x2="1"
       y1="0"
       x1="0"><stop
         id="stop336"
         offset="0"
         style="stop-opacity:1;stop-color:#f4e83f" /><stop
         id="stop338"
         offset="0.00019338"
         style="stop-opacity:1;stop-color:#f4e83f" /><stop
         id="stop340"
         offset="0.116221"
         style="stop-opacity:1;stop-color:#f4e83f" /><stop
         id="stop342"
         offset="0.268526"
         style="stop-opacity:1;stop-color:#f6ee8c" /><stop
         id="stop344"
         offset="0.570525"
         style="stop-opacity:1;stop-color:#fbd50f" /><stop
         id="stop346"
         offset="1"
         style="stop-opacity:1;stop-color:#ef8a24" /></linearGradient><linearGradient
       id="linearGradient378"
       spreadMethod="pad"
       gradientTransform="matrix(402.79117,230.20638,230.20638,-402.79117,1716.8589,1197.2815)"
       gradientUnits="userSpaceOnUse"
       y2="0"
       x2="1"
       y1="0"
       x1="0"><stop
         id="stop364"
         offset="0"
         style="stop-opacity:1;stop-color:#f4e83f" /><stop
         id="stop366"
         offset="0.0882967"
         style="stop-opacity:1;stop-color:#f7ed78" /><stop
         id="stop368"
         offset="0.329904"
         style="stop-opacity:1;stop-color:#faf5bb" /><stop
         id="stop370"
         offset="0.465791"
         style="stop-opacity:1;stop-color:#faf3ab" /><stop
         id="stop372"
         offset="0.696898"
         style="stop-opacity:1;stop-color:#fbd50f" /><stop
         id="stop374"
         offset="0.940053"
         style="stop-opacity:1;stop-color:#ef8a24" /><stop
         id="stop376"
         offset="1"
         style="stop-opacity:1;stop-color:#ef8a24" /></linearGradient><linearGradient
       id="linearGradient402"
       spreadMethod="pad"
       gradientTransform="matrix(510.18481,162.42668,162.42668,-510.18481,1936.4523,1027.8645)"
       gradientUnits="userSpaceOnUse"
       y2="0"
       x2="1"
       y1="0"
       x1="0"><stop
         id="stop394"
         offset="0"
         style="stop-opacity:1;stop-color:#f8c51a" /><stop
         id="stop396"
         offset="0.230411"
         style="stop-opacity:1;stop-color:#f8ca18" /><stop
         id="stop398"
         offset="0.784112"
         style="stop-opacity:1;stop-color:#ee7622" /><stop
         id="stop400"
         offset="1"
         style="stop-opacity:1;stop-color:#e34329" /></linearGradient><linearGradient
       id="linearGradient430"
       spreadMethod="pad"
       gradientTransform="matrix(413.85007,0,0,-413.85007,1959.4028,1098.24)"
       gradientUnits="userSpaceOnUse"
       y2="0"
       x2="1"
       y1="0"
       x1="0"><stop
         id="stop418"
         offset="0"
         style="stop-opacity:1;stop-color:#f8c51a" /><stop
         id="stop420"
         offset="0.173151"
         style="stop-opacity:1;stop-color:#f8e22f" /><stop
         id="stop422"
         offset="0.392888"
         style="stop-opacity:1;stop-color:#f8e22f" /><stop
         id="stop424"
         offset="0.68984"
         style="stop-opacity:1;stop-color:#fbbf19" /><stop
         id="stop426"
         offset="0.826327"
         style="stop-opacity:1;stop-color:#f28f1f" /><stop
         id="stop428"
         offset="1"
         style="stop-opacity:1;stop-color:#ec6322" /></linearGradient><linearGradient
       id="linearGradient454"
       spreadMethod="pad"
       gradientTransform="matrix(244.38882,0,0,-244.38882,2012.7489,1091.1769)"
       gradientUnits="userSpaceOnUse"
       y2="0"
       x2="1"
       y1="0"
       x1="0"><stop
         id="stop446"
         offset="0"
         style="stop-opacity:1;stop-color:#f8e22f" /><stop
         id="stop448"
         offset="0.27599"
         style="stop-opacity:1;stop-color:#faee75" /><stop
         id="stop450"
         offset="0.727645"
         style="stop-opacity:1;stop-color:#faec5d" /><stop
         id="stop452"
         offset="1"
         style="stop-opacity:1;stop-color:#fbb91c" /></linearGradient></defs><g
     transform="matrix(1.3333333,0,0,-1.3333333,0,1919.7333)"
     id="g10"><g
       transform="translate(4595.8496,868.4269)"
       id="g12"><path
         id="path14"
         style="fill:#ffffff;fill-opacity:1;fill-rule:nonzero;stroke:none"
         d="M 0,0 H -45.146 V 15.175 H 63.163 V 0 H 18.021 V -120.257 H 0 Z" /></g><g
       transform="translate(4784.5767,883.6013)"
       id="g16"><path
         id="path18"
         style="fill:#ffffff;fill-opacity:1;fill-rule:nonzero;stroke:none"
         d="M 0,0 -42.866,-113.816 -85.548,0 h -24.657 v -135.43 h 17.07 v 112.661 h 0.382 l 42.298,-112.661 h 15.362 L 7.209,-22.769 H 7.587 V -135.43 h 17.07 l 0,135.43 z" /></g><g
       id="g20"><g
         clip-path="url(#clipPath26)"
         id="g22"><g
           id="g28"><g
             id="g30"><path
               id="path38"
               style="fill:url(#linearGradient36);stroke:none"
               d="m 1868.239,1439.801 c -35.698,-0.031 -82.189,-11.794 -120.548,-60.859 v 0 c -52.283,-66.872 -44.38,-73.559 -124.296,-126.061 v 0 c 0,0 111.033,-18.515 171.218,78.147 v 0 c 60.186,96.661 129.986,98.98 129.986,98.98 v 0 c 0,0 -23.494,9.758 -56.041,9.793 v 0 z" /></g></g></g></g><g
       id="g40"><g
         clip-path="url(#clipPath46)"
         id="g42"><g
           id="g48"><g
             id="g50"><path
               id="path64"
               style="fill:url(#linearGradient62);stroke:none"
               d="m 1748.298,1359.488 c -40.411,-55.725 -41.947,-60.793 -108.819,-102.131 v 0 c 0,0 92.406,0 140.432,77.815 v 0 c 51.012,82.651 107.604,93.013 107.604,93.013 v 0 c 0,0 -3.786,0.508 -10.304,0.508 v 0 c -23.717,0 -83.609,-6.733 -128.913,-69.205" /></g></g></g></g><g
       id="g66"><g
         clip-path="url(#clipPath72)"
         id="g68"><g
           id="g74"><g
             id="g76"><path
               id="path94"
               style="fill:url(#linearGradient92);stroke:none"
               d="m 1820.593,1400.82 c 0.032,0.01 0.049,0.01 0.049,0.01 v 0 c 0,0 -0.016,0 -0.049,-0.01 m -68.648,-57.745 c -28.572,-41.34 -30.755,-40.774 -77.206,-75.992 v 0 c 0,0 61.44,15.867 96.053,74.168 v 0 c 33.028,55.633 48.819,59.385 49.801,59.569 v 0 c -1.409,-0.247 -33.082,-6.289 -68.648,-57.745" /></g></g></g></g><g
       id="g96"><g
         id="g98"><g
           id="g104"><g
             id="g106"><path
               id="path118"
               style="fill:url(#linearGradient116);stroke:none"
               d="m 2162.77,1341.39 c 0,0 -45.291,-7.6 -65.353,-18.543 v 0 c -16.855,-9.193 -53.939,-17.744 -131.314,-87.542 v 0 c -92.71,-83.631 -165.358,-150.159 -332.539,-89.973 v 0 c 0,0 124.626,-180.557 339.834,-44.38 v 0 c 215.208,136.177 258.98,173.869 538.02,128.274 v 0 c 0,0 -96.9,116.132 -286.854,116.132 v 0 c -19.608,0 -40.207,-1.238 -61.794,-3.968" /></g></g></g></g><g
       id="g120"><g
         id="g122"><g
           id="g128"><g
             id="g130"><path
               id="path146"
               style="fill:url(#linearGradient144);stroke:none"
               d="m 2139.502,1319.061 c -10.334,-3.039 -57.283,-16.883 -84.64,-36.337 v 0 c -30.605,-21.763 -47.786,-32.015 -97.27,-74.168 v 0 c -82.071,-69.912 -145.894,-123.486 -302.75,-78.424 v 0 c 0,0 119.763,-128.273 284.817,-35.259 v 0 c 15.633,8.81 82.191,53.612 99.397,64.744 v 0 c 139.52,90.278 207.913,118.548 425.856,90.278 v 0 c 0,0 -89.328,80.508 -232.027,80.51 v 0 c -29.022,0 -60.248,-3.33 -93.383,-11.344" /></g></g></g></g><g
       id="g148"><g
         id="g150"><g
           id="g156"><g
             id="g158"><path
               id="path170"
               style="fill:url(#linearGradient168);stroke:none"
               d="m 1960.632,1185.15 c -63.456,-54.908 -138.608,-104.259 -257.156,-79.943 v 0 c 0,0 111.86,-65.656 232.231,10.944 v 0 c 4.872,3.099 65.048,43.163 115.507,80.854 v 0 c 64.389,48.099 161.406,92.387 248.645,89.367 v 0 c 0,0 -28.312,12.39 -76.225,12.391 v 0 c -61.496,0 -155.288,-20.405 -263.002,-113.613" /></g></g></g></g><g
       id="g172"><g
         clip-path="url(#clipPath178)"
         id="g174"><g
           transform="translate(3.7723,882.8247)"
           id="g180"><path
             id="path182"
             style="fill:#ffffff;fill-opacity:1;fill-rule:nonzero;stroke:none"
             d="m 0,0 h 276.06 v -82.356 c 46.396,66.116 106.709,100.915 182.105,100.915 6.96,0 13.921,0 20.877,-1.162 V -266.78 c -30.156,16.243 -56.833,25.519 -80.033,25.519 -71.915,0 -113.67,-40.594 -113.67,-112.513 V -585.752 H 0 Z" /></g><g
           transform="translate(875.355,670.559)"
           id="g184"><path
             id="path186"
             style="fill:#ffffff;fill-opacity:1;fill-rule:nonzero;stroke:none"
             d="M 0,0 C -3.48,46.396 -23.196,67.277 -63.794,67.277 -99.753,67.277 -122.95,45.239 -128.749,0 Z m -131.068,-127.587 v -9.276 c 0,-59.16 20.878,-88.155 64.955,-88.155 25.516,0 45.235,15.075 57.995,45.232 l 263.3,-17.398 C 212.266,-320.133 95.115,-395.522 -70.754,-395.522 c -199.503,0 -342.172,141.501 -342.172,313.173 0,171.662 141.508,313.173 342.172,313.173 200.664,0 344.494,-134.551 344.494,-327.093 0,-10.437 0,-20.881 -1.161,-31.318 z" /></g><g
           transform="translate(1214.5485,667.0788)"
           id="g188"><path
             id="path190"
             style="fill:#ffffff;fill-opacity:1;fill-rule:nonzero;stroke:none"
             d="M 0,0 H -76.553 V 215.746 H 0 v 190.409 c 0,162.389 90.474,251.701 251.698,251.701 42.92,0 84.675,-4.641 127.591,-13.92 V 423.555 c -15.078,2.319 -27.838,4.638 -40.597,4.638 -42.916,0 -54.515,-24.357 -54.515,-70.754 V 215.746 h 95.112 V 0 H 284.177 V -370.006 H 0 Z" /></g><path
           id="path192"
           style="fill:#ffffff;fill-opacity:1;fill-rule:nonzero;stroke:none"
           d="m 1623.737,882.825 h 284.177 V 297.073 h -284.177 z" /><g
           transform="translate(1941.5437,882.8247)"
           id="g194"><path
             id="path196"
             style="fill:#ffffff;fill-opacity:1;fill-rule:nonzero;stroke:none"
             d="m 0,0 h 276.06 v -81.195 c 48.715,67.274 106.713,99.754 182.108,99.754 122.95,0 202.983,-78.876 202.983,-211.105 V -585.752 H 376.974 v 295.775 c 0,51.035 -6.961,76.554 -40.601,76.554 -33.633,0 -51.038,-25.519 -51.038,-76.554 V -585.752 H 0 Z" /></g><g
           transform="translate(3006.6187,670.559)"
           id="g198"><path
             id="path200"
             style="fill:#ffffff;fill-opacity:1;fill-rule:nonzero;stroke:none"
             d="m 0,0 c -3.484,46.396 -23.204,67.277 -63.797,67.277 -35.956,0 -59.152,-22.038 -64.959,-67.277 z m -131.071,-127.587 v -9.276 c 0,-59.16 20.874,-88.155 64.951,-88.155 25.519,0 45.239,15.075 57.998,45.232 l 263.297,-17.398 C 212.259,-320.133 95.108,-395.522 -70.758,-395.522 c -199.506,0 -342.175,141.501 -342.175,313.173 0,171.662 141.515,313.173 342.175,313.173 200.668,0 344.491,-134.551 344.491,-327.093 0,-10.437 0,-20.881 -1.154,-31.318 z" /></g><g
           transform="translate(3277.5925,882.8247)"
           id="g202"><path
             id="path204"
             style="fill:#ffffff;fill-opacity:1;fill-rule:nonzero;stroke:none"
             d="M 0,0 H 276.056 V -82.356 C 322.456,-16.24 382.77,0.7 458.165,0.7 c 6.96,0 13.921,0 20.881,-1.161 V -266.78 c -30.157,16.243 -56.837,25.519 -80.033,25.519 -71.919,0 -113.674,-40.594 -113.674,-112.513 V -585.752 H 0 Z" /></g><g
           transform="translate(3742.1528,882.8247)"
           id="g206"><path
             id="path208"
             style="fill:#ffffff;fill-opacity:1;fill-rule:nonzero;stroke:none"
             d="m 0,0 h 312.012 l 44.077,-149.63 c 11.598,-40.597 28.995,-93.954 38.279,-164.704 20.874,90.47 35.955,147.307 41.755,168.184 L 479.039,0 H 771.338 L 414.087,-824.691 H 111.351 l 142.662,289.977 z" /></g><g
           transform="translate(109.4813,162.0544)"
           id="g210"><path
             id="path212"
             style="fill:#ffffff;fill-opacity:1;fill-rule:nonzero;stroke:none"
             d="m 0,0 c -3.754,18.772 -16.756,29.751 -36.975,29.751 -35.532,0 -46.506,-28.02 -46.506,-58.348 0,-27.442 12.421,-54.6 43.618,-54.6 23.687,0 37.84,13.864 41.017,36.398 h 25.131 c -5.486,-36.398 -28.308,-58.062 -65.86,-58.062 -45.641,0 -69.906,31.774 -69.906,76.264 0,44.769 23.111,80.012 70.483,80.012 33.797,0 60.951,-15.887 64.417,-51.415 z" /></g><g
           transform="translate(227.6362,78.8579)"
           id="g214"><path
             id="path216"
             style="fill:#ffffff;fill-opacity:1;fill-rule:nonzero;stroke:none"
             d="m 0,0 c 25.708,0 46.507,20.219 46.507,56.331 0,36.398 -20.799,56.616 -46.507,56.616 -25.708,0 -46.507,-20.218 -46.507,-56.616 C -46.507,20.219 -25.708,0 0,0 m 0,134.612 c 47.372,0 72.503,-34.374 72.503,-78.281 0,-43.621 -25.131,-77.996 -72.503,-77.996 -47.372,0 -72.507,34.375 -72.507,77.996 0,43.907 25.135,78.281 72.507,78.281" /></g><g
           transform="translate(329.0387,210.0003)"
           id="g218"><path
             id="path220"
             style="fill:#ffffff;fill-opacity:1;fill-rule:nonzero;stroke:none"
             d="m 0,0 h 23.107 v -23.681 h 0.581 c 10.398,18.487 27.154,27.15 48.527,27.15 39.286,0 51.418,-22.533 51.418,-54.592 v -98.215 H 99.08 v 101.1 c 0,18.202 -11.556,30.043 -30.331,30.043 -29.751,0 -44.195,-19.934 -44.195,-46.799 v -84.344 H 0 Z" /></g><g
           transform="translate(523.7468,210.0003)"
           id="g222"><path
             id="path224"
             style="fill:#ffffff;fill-opacity:1;fill-rule:nonzero;stroke:none"
             d="M 0,0 H 29.754 V -21.665 H 0 v -92.721 c 0,-11.264 3.177,-13.287 18.487,-13.287 h 11.267 v -21.665 H 10.978 c -25.422,0 -35.532,5.201 -35.532,32.643 v 95.03 H -49.973 V 0 h 25.419 v 44.776 l 24.554,0 z" /></g><g
           transform="translate(684.3621,149.6298)"
           id="g226"><path
             id="path228"
             style="fill:#ffffff;fill-opacity:1;fill-rule:nonzero;stroke:none"
             d="M 0,0 C -1.158,23.396 -18.776,42.175 -43.041,42.175 -68.752,42.175 -84.062,22.819 -85.793,0 Z m 23.684,-41.598 c -6.643,-32.928 -30.331,-50.839 -63.836,-50.839 -47.665,0 -70.195,32.936 -71.641,78.573 0,44.776 29.466,77.704 70.195,77.704 52.861,0 69.04,-49.392 67.594,-85.505 H -85.793 c -0.866,-25.996 13.863,-49.107 46.507,-49.107 20.218,0 34.374,9.824 38.705,29.174 z" /></g><g
           transform="translate(735.7881,210.0003)"
           id="g230"><path
             id="path232"
             style="fill:#ffffff;fill-opacity:1;fill-rule:nonzero;stroke:none"
             d="m 0,0 h 23.107 v -23.681 h 0.581 c 10.398,18.487 27.154,27.15 48.527,27.15 39.286,0 51.419,-22.533 51.419,-54.592 v -98.215 H 99.08 v 101.1 c 0,18.202 -11.556,30.043 -30.331,30.043 -29.751,0 -44.195,-19.934 -44.195,-46.799 v -84.344 H 0 Z" /></g><g
           transform="translate(930.4963,210.0003)"
           id="g234"><path
             id="path236"
             style="fill:#ffffff;fill-opacity:1;fill-rule:nonzero;stroke:none"
             d="M 0,0 H 29.754 V -21.665 H 0 v -92.721 c 0,-11.264 3.177,-13.287 18.487,-13.287 h 11.267 v -21.665 H 10.978 c -25.422,0 -35.532,5.201 -35.532,32.643 v 95.03 H -49.973 V 0 h 25.419 v 44.776 l 24.554,0 z" /></g><g
           transform="translate(1067.7192,210.0003)"
           id="g238"><path
             id="path240"
             style="fill:#ffffff;fill-opacity:1;fill-rule:nonzero;stroke:none"
             d="m 0,0 h 23.107 v -21.95 h 0.581 c 10.975,16.756 27.731,25.419 48.238,25.419 18.199,0 34.955,-7.223 41.021,-25.419 10.109,15.887 27.731,25.419 46.796,25.419 29.75,0 49.684,-12.417 49.684,-43.329 v -109.478 h -24.554 v 97.923 c 0,18.487 -4.912,33.22 -28.885,33.22 -23.688,0 -38.998,-15.018 -38.998,-38.129 v -93.014 H 92.437 v 97.923 c 0,19.356 -6.067,33.22 -28.02,33.22 -29.177,0 -39.863,-26.866 -39.863,-38.129 v -93.014 H 0 Z" /></g><g
           transform="translate(1406.5786,137.7893)"
           id="g242"><path
             id="path244"
             style="fill:#ffffff;fill-opacity:1;fill-rule:nonzero;stroke:none"
             d="m 0,0 c -9.532,-6.932 -28.02,-7.224 -44.484,-10.109 -16.179,-2.893 -30.042,-8.67 -30.042,-26.866 0,-16.179 13.863,-21.956 28.885,-21.956 32.354,0 45.641,20.218 45.641,33.797 z m 39.864,-76.55 c -4.332,-2.6 -9.821,-4.046 -17.622,-4.046 -12.71,0 -20.799,6.932 -20.799,23.111 -13.576,-15.887 -31.774,-23.111 -52.573,-23.111 -27.151,0 -49.396,12.132 -49.396,41.883 0,33.797 25.134,41.021 50.553,45.93 27.154,5.2 50.262,3.469 50.262,21.957 0,21.372 -17.622,24.842 -33.221,24.842 -20.795,0 -36.105,-6.355 -37.263,-28.312 h -24.553 c 1.446,36.975 30.042,49.976 63.263,49.976 26.861,0 56.039,-6.062 56.039,-41.021 v -76.834 c 0,-11.556 0,-16.756 7.797,-16.756 2.023,0 4.335,0.292 7.513,1.446 z" /></g><g
           transform="translate(1469.2716,210.0003)"
           id="g246"><path
             id="path248"
             style="fill:#ffffff;fill-opacity:1;fill-rule:nonzero;stroke:none"
             d="m 0,0 h 23.111 v -23.681 h 0.577 c 10.398,18.487 27.15,27.15 48.527,27.15 39.286,0 51.419,-22.533 51.419,-54.592 v -98.215 H 99.08 v 101.1 c 0,18.202 -11.555,30.043 -30.331,30.043 -29.751,0 -44.195,-19.934 -44.195,-46.799 v -84.344 H 0 Z" /></g><g
           transform="translate(1722.3306,137.7893)"
           id="g250"><path
             id="path252"
             style="fill:#ffffff;fill-opacity:1;fill-rule:nonzero;stroke:none"
             d="m 0,0 c -9.532,-6.932 -28.019,-7.224 -44.484,-10.109 -16.179,-2.893 -30.042,-8.67 -30.042,-26.866 0,-16.179 13.863,-21.956 28.885,-21.956 32.354,0 45.641,20.218 45.641,33.797 z m 39.864,-76.55 c -4.332,-2.6 -9.821,-4.046 -17.622,-4.046 -12.71,0 -20.799,6.932 -20.799,23.111 -13.575,-15.887 -31.774,-23.111 -52.573,-23.111 -27.151,0 -49.396,12.132 -49.396,41.883 0,33.797 25.134,41.021 50.553,45.93 27.154,5.2 50.262,3.469 50.262,21.957 0,21.372 -17.622,24.842 -33.221,24.842 -20.795,0 -36.105,-6.355 -37.263,-28.312 h -24.553 c 1.446,36.975 30.042,49.976 63.263,49.976 26.861,0 56.039,-6.062 56.039,-41.021 v -76.834 c 0,-11.556 0,-16.756 7.797,-16.756 2.023,0 4.335,0.292 7.513,1.446 z" /></g><g
           transform="translate(1889.5928,138.3664)"
           id="g254"><path
             id="path256"
             style="fill:#ffffff;fill-opacity:1;fill-rule:nonzero;stroke:none"
             d="m 0,0 c 0,26.288 -11.555,53.439 -42.464,53.439 -31.485,0 -44.195,-25.712 -44.195,-54.308 0,-26.866 9.821,-56.908 42.175,-56.908 C -12.133,-57.777 0,-28.02 0,0 m 24.265,-64.994 c 0,-48.53 -22.242,-73.372 -69.329,-73.372 -28.02,0 -60.371,11.263 -61.817,43.906 h 24.554 c 1.157,-17.91 22.534,-24.265 38.709,-24.265 32.063,0 44.772,23.111 44.772,56.616 v 9.824 H 0.577 c -8.086,-18.202 -27.731,-27.157 -46.507,-27.157 -44.483,0 -66.729,34.958 -66.729,75.688 0,35.236 17.334,78.857 69.041,78.857 18.776,0 35.528,-8.378 44.484,-24.842 H 0.577 1.154 v 21.373 h 23.111 z" /></g><g
           transform="translate(2054.5466,149.6298)"
           id="g258"><path
             id="path260"
             style="fill:#ffffff;fill-opacity:1;fill-rule:nonzero;stroke:none"
             d="M 0,0 C -1.158,23.396 -18.776,42.175 -43.041,42.175 -68.752,42.175 -84.062,22.819 -85.793,0 Z m 23.685,-41.598 c -6.644,-32.928 -30.332,-50.839 -63.837,-50.839 -47.665,0 -70.195,32.936 -71.641,78.573 0,44.776 29.466,77.704 70.195,77.704 52.861,0 69.04,-49.392 67.594,-85.505 H -85.793 c -0.866,-25.996 13.863,-49.107 46.507,-49.107 20.218,0 34.374,9.824 38.705,29.174 z" /></g><g
           transform="translate(2105.9727,210.0003)"
           id="g262"><path
             id="path264"
             style="fill:#ffffff;fill-opacity:1;fill-rule:nonzero;stroke:none"
             d="m 0,0 h 23.107 v -21.95 h 0.581 c 10.975,16.756 27.731,25.419 48.238,25.419 18.199,0 34.955,-7.223 41.021,-25.419 10.11,15.887 27.731,25.419 46.796,25.419 29.75,0 49.684,-12.417 49.684,-43.329 v -109.478 h -24.55 v 97.923 c 0,18.487 -4.916,33.22 -28.889,33.22 -23.688,0 -38.998,-15.018 -38.998,-38.129 v -93.014 H 92.437 v 97.923 c 0,19.356 -6.067,33.22 -28.02,33.22 -29.177,0 -39.863,-26.866 -39.863,-38.129 v -93.014 H 0 Z" /></g><g
           transform="translate(2456.0955,149.6298)"
           id="g266"><path
             id="path268"
             style="fill:#ffffff;fill-opacity:1;fill-rule:nonzero;stroke:none"
             d="M 0,0 C -1.154,23.396 -18.772,42.175 -43.037,42.175 -68.749,42.175 -84.059,22.819 -85.79,0 Z m 23.688,-41.598 c -6.64,-32.928 -30.328,-50.839 -63.84,-50.839 -47.661,0 -70.195,32.936 -71.634,78.573 0,44.776 29.459,77.704 70.195,77.704 52.862,0 69.033,-49.392 67.594,-85.505 H -85.79 c -0.869,-25.996 13.864,-49.107 46.507,-49.107 20.219,0 34.375,9.824 38.706,29.174 z" /></g><g
           transform="translate(2507.5251,210.0003)"
           id="g270"><path
             id="path272"
             style="fill:#ffffff;fill-opacity:1;fill-rule:nonzero;stroke:none"
             d="m 0,0 h 23.111 v -23.681 h 0.577 c 10.401,18.487 27.15,27.15 48.53,27.15 39.283,0 51.416,-22.533 51.416,-54.592 v -98.215 H 99.083 v 101.1 c 0,18.202 -11.555,30.043 -30.334,30.043 -29.751,0 -44.199,-19.934 -44.199,-46.799 v -84.344 H 0 Z" /></g><g
           transform="translate(2702.2368,210.0003)"
           id="g274"><path
             id="path276"
             style="fill:#ffffff;fill-opacity:1;fill-rule:nonzero;stroke:none"
             d="M 0,0 H 29.751 V -21.665 H 0 v -92.721 c 0,-11.264 3.177,-13.287 18.487,-13.287 h 11.264 v -21.665 h -18.78 c -25.419,0 -35.528,5.201 -35.528,32.643 v 95.03 H -49.976 V 0 h 25.419 v 44.776 l 24.557,0 z" /></g><g
           transform="translate(2854.4741,107.7466)"
           id="g278"><path
             id="path280"
             style="fill:#ffffff;fill-opacity:1;fill-rule:nonzero;stroke:none"
             d="m 0,0 c 0.869,-21.957 19.934,-28.889 40.152,-28.889 15.31,0 36.113,3.47 36.113,22.242 0,19.064 -24.265,22.242 -48.823,27.735 -24.265,5.485 -48.815,13.578 -48.815,42.175 0,30.043 29.751,42.46 55.754,42.46 32.929,0 59.217,-10.401 61.233,-46.799 H 71.064 C 69.333,77.996 52.577,84.059 36.397,84.059 21.665,84.059 4.624,80.012 4.624,64.994 c 0,-17.618 25.996,-20.51 48.822,-25.996 24.55,-5.493 48.815,-13.579 48.815,-42.467 0,-35.529 -33.22,-47.084 -63.548,-47.084 -33.512,0 -61.817,13.578 -63.263,50.553 z" /></g><g
           transform="translate(3042.5388,40.7291)"
           id="g282"><path
             id="path284"
             style="fill:#ffffff;fill-opacity:1;fill-rule:nonzero;stroke:none"
             d="m 0,0 c -11.263,-29.174 -21.373,-39.86 -43.329,-39.86 -5.778,0 -11.556,0.577 -17.041,2.593 v 22.534 c 4.616,-1.446 9.532,-3.462 14.44,-3.462 10.11,0 15.602,4.908 20.219,13.571 l 10.109,25.42 -59.216,148.475 h 27.734 L -3.469,47.084 h 0.584 l 41.883,122.187 h 25.996 z" /></g><g
           transform="translate(3143.3606,107.7466)"
           id="g286"><path
             id="path288"
             style="fill:#ffffff;fill-opacity:1;fill-rule:nonzero;stroke:none"
             d="m 0,0 c 0.869,-21.957 19.934,-28.889 40.152,-28.889 15.31,0 36.113,3.47 36.113,22.242 0,19.064 -24.265,22.242 -48.822,27.735 -24.266,5.485 -48.816,13.578 -48.816,42.175 0,30.043 29.751,42.46 55.755,42.46 32.928,0 59.216,-10.401 61.232,-46.799 H 71.064 C 69.333,77.996 52.577,84.059 36.398,84.059 21.665,84.059 4.624,80.012 4.624,64.994 c 0,-17.618 25.996,-20.51 48.822,-25.996 24.55,-5.493 48.815,-13.579 48.815,-42.467 0,-35.529 -33.22,-47.084 -63.548,-47.084 -33.512,0 -61.817,13.578 -63.263,50.553 z" /></g><g
           transform="translate(3306.8755,210.0003)"
           id="g290"><path
             id="path292"
             style="fill:#ffffff;fill-opacity:1;fill-rule:nonzero;stroke:none"
             d="M 0,0 H 29.751 V -21.665 H 0 v -92.721 c 0,-11.264 3.177,-13.287 18.487,-13.287 h 11.264 v -21.665 h -18.78 c -25.419,0 -35.528,5.201 -35.528,32.643 v 95.03 H -49.976 V 0 h 25.419 v 44.776 l 24.557,0 z" /></g><g
           transform="translate(3467.4836,149.6298)"
           id="g294"><path
             id="path296"
             style="fill:#ffffff;fill-opacity:1;fill-rule:nonzero;stroke:none"
             d="M 0,0 C -1.154,23.396 -18.772,42.175 -43.037,42.175 -68.749,42.175 -84.059,22.819 -85.79,0 Z m 23.688,-41.598 c -6.64,-32.928 -30.328,-50.839 -63.84,-50.839 -47.661,0 -70.195,32.936 -71.634,78.573 0,44.776 29.459,77.704 70.195,77.704 52.862,0 69.033,-49.392 67.594,-85.505 H -85.79 c -0.869,-25.996 13.864,-49.107 46.507,-49.107 20.219,0 34.374,9.824 38.706,29.174 z" /></g><g
           transform="translate(3518.9133,210.0003)"
           id="g298"><path
             id="path300"
             style="fill:#ffffff;fill-opacity:1;fill-rule:nonzero;stroke:none"
             d="m 0,0 h 23.111 v -21.95 h 0.577 c 10.978,16.756 27.727,25.419 48.238,25.419 18.202,0 34.951,-7.223 41.021,-25.419 10.109,15.887 27.728,25.419 46.792,25.419 29.758,0 49.684,-12.417 49.684,-43.329 v -109.478 h -24.55 v 97.923 c 0,18.487 -4.908,33.22 -28.889,33.22 -23.688,0 -38.997,-15.018 -38.997,-38.129 v -93.014 h -24.55 v 97.923 c 0,19.356 -6.063,33.22 -28.02,33.22 -29.174,0 -39.867,-26.866 -39.867,-38.129 v -93.014 H 0 Z" /></g></g></g><g
       id="g302"><g
         id="g304"><g
           id="g310"><g
             id="g312"><path
               id="path322"
               style="fill:url(#linearGradient320);stroke:none"
               d="m 1910.009,1385.63 c -124.019,-95.445 -109.428,-152.591 -268.098,-180.556 v 0 c 0,0 179.948,-70.521 286.943,53.498 v 0 c 106.996,124.019 266.275,120.37 266.275,120.37 v 0 c 0,0 -74.837,47.437 -161.755,47.441 v 0 c -40.618,10e-4 -83.868,-10.356 -123.365,-40.753" /></g></g></g></g><g
       id="g324"><g
         id="g326"><g
           id="g332"><g
             id="g334"><path
               id="path350"
               style="fill:url(#linearGradient348);stroke:none"
               d="M 1911.224,1369.216 C 1803.455,1286.275 1804.229,1222.097 1656.5,1204.301 v 0 c 0,0 166.981,-40.788 263.843,71.901 v 0 c 93.014,108.212 237.702,108.212 237.702,108.212 v 0 c 0,0 -53.506,26.06 -119.849,26.064 v 0 c -40.62,0 -86.045,-9.764 -126.972,-41.262" /></g></g></g></g><g
       id="g352"><g
         id="g354"><g
           id="g360"><g
             id="g362"><path
               id="path380"
               style="fill:url(#linearGradient378);stroke:none"
               d="m 1857.726,1287.753 c -62.617,-70.521 -156.239,-83.895 -156.239,-83.895 v 0 c 138.609,-5.471 196.363,78.423 196.363,78.423 v 0 c 6.432,7.522 26.578,29.315 32.22,34.652 v 0 c 67.481,63.834 142.257,71.736 142.257,71.736 v 0 c -103.35,0 -156.576,-35.568 -214.601,-100.916" /></g></g></g></g><g
       id="g382"><g
         id="g384"><g
           id="g390"><g
             id="g392"><path
               id="path404"
               style="fill:url(#linearGradient402);stroke:none"
               d="m 2183.578,1164.038 c -113.075,-67.48 -134.961,-118.546 -252.596,-138.608 v 0 c 0,0 144.992,-59.274 262.627,41.035 v 0 c 117.635,100.309 220.679,94.838 220.679,94.838 v 0 c 0,0 -53.67,32.032 -123.347,32.034 v 0 c -33.484,10e-4 -70.66,-7.395 -107.363,-29.299" /></g></g></g></g><g
       id="g406"><g
         id="g408"><g
           id="g414"><g
             id="g416"><path
               id="path432"
               style="fill:url(#linearGradient430);stroke:none"
               d="m 2175.675,1143.065 c -98.553,-64.633 -111.843,-96.44 -216.273,-118.843 v 0 c 0,0 118.841,-35.741 224.176,53.794 v 0 c 109.428,93.014 189.675,88.15 189.675,88.15 v 0 c 0,0 -31.323,13.135 -76.263,13.136 v 0 c -34.971,0 -78.187,-7.953 -121.315,-36.237" /></g></g></g></g><g
       id="g434"><g
         id="g436"><g
           id="g442"><g
             id="g444"><path
               id="path456"
               style="fill:url(#linearGradient454);stroke:none"
               d="m 2136.159,1095.039 c -46.202,-38.909 -106.388,-60.794 -123.41,-66.266 v 0 c 0,0 56.537,-6.686 120.371,32.829 v 0 c 63.832,39.515 35.867,32.828 124.017,92.405 v 0 c 0,0 -60.43,-7.98 -120.978,-58.968" /></g></g></g></g></g></svg>